{
  "accessors": [
    {
      "bufferView": 2,
      "componentType": 5126,
      "count": 1605,
      "max": [
        0.59081101417541504,
        0.011629699729382992,
        0.21451200544834137
      ],
      "min": [
        -1,
        -0.040144998580217361,
        -0.21451200544834137
      ],
      "type": "VEC3"
    },
    {
      "bufferView": 2,
      "byteOffset": 19260,
      "componentType": 5126,
      "count": 1605,
      "max": [
        0.99899786710739136,
        1,
        0.99879837036132812
      ],
      "min": [
        -1,
        -1,
        -0.99879837036132812
      ],
      "type": "VEC3"
    },
    {
      "bufferView": 3,
      "componentType": 5126,
      "count": 1605,
      "max": [
        1,
        1,
        1,
        1
      ],
      "min": [
        -1,
        -1,
        -1,
        -1
      ],
      "type": "VEC4"
    },
    {
      "bufferView": 1,
      "componentType": 5126,
      "count": 1605,
      "max": [
        0.98803901672363281,
        0.99347400665283203
      ],
      "min": [
        0.010518199764192104,
        0.0037010600790381432
      ],
      "type": "VEC2"
    },
    {
      "bufferView": 0,
      "componentType": 5125,
      "count": 5550,
      "max": [
        1604
      ],
      "min": [
        0
      ],
      "type": "SCALAR"
    },
    {
      "bufferView": 2,
      "byteOffset": 38520,
      "componentType": 5126,
      "count": 2496,
      "max": [
        0.5403059720993042,
        0.011014300398528576,
        0.04553309828042984
      ],
      "min": [
        0.45974001288414001,
        -0.046046800911426544,
        -0.046915598213672638
      ],
      "type": "VEC3"
    },
    {
      "bufferView": 2,
      "byteOffset": 68472,
      "componentType": 5126,
      "count": 2496,
      "max": [
        0.99906700849533081,
        0.99950098991394043,
        0.99927425384521484
      ],
      "min": [
        -0.99918287992477417,
        -0.9995000958442688,
        -0.99927425384521484
      ],
      "type": "VEC3"
    },
    {
      "bufferView": 3,
      "byteOffset": 25680,
      "componentType": 5126,
      "count": 2496,
      "max": [
        0.99926471710205078,
        0.9997861385345459,
        0.99927127361297607,
        1
      ],
      "min": [
        -0.99905872344970703,
        -0.99908715486526489,
        -0.99947887659072876,
        -1
      ],
      "type": "VEC4"
    },
    {
      "bufferView": 1,
      "byteOffset": 12840,
      "componentType": 5126,
      "count": 2496,
      "max": [
        0.28202399611473083,
        0.98083102703094482
      ],
      "min": [
        0.016344400122761726,
        0.014833799563348293
      ],
      "type": "VEC2"
    },
    {
      "bufferView": 0,
      "byteOffset": 22200,
      "componentType": 5125,
      "count": 13680,
      "max": [
        2495
      ],
      "min": [
        0
      ],
      "type": "SCALAR"
    },
    {
      "bufferView": 2,
      "byteOffset": 98424,
      "componentType": 5126,
      "count": 5018,
      "max": [
        0.54437601566314697,
        0.014374200254678726,
        0.11448799818754196
      ],
      "min": [
        0.4564250111579895,
        -0.042813301086425781,
        -0.11365900188684464
      ],
      "type": "VEC3"
    },
    {
      "bufferView": 2,
      "byteOffset": 158640,
      "componentType": 5126,
      "count": 5018,
      "max": [
        0.99993276596069336,
        0.9999578595161438,
        0.99940264225006104
      ],
      "min": [
        -0.99958038330078125,
        -0.99992078542709351,
        -0.99703699350357056
      ],
      "type": "VEC3"
    },
    {
      "bufferView": 3,
      "byteOffset": 65616,
      "componentType": 5126,
      "count": 5018,
      "max": [
        0.99992889165878296,
        0.99966931343078613,
        0.9997628927230835,
        1
      ],
      "min": [
        -0.99816137552261353,
        -0.99995559453964233,
        -0.98510128259658813,
        -1
      ],
      "type": "VEC4"
    },
    {
      "bufferView": 1,
      "byteOffset": 32808,
      "componentType": 5126,
      "count": 5018,
      "max": [
        0.61825501918792725,
        0.98612898588180542
      ],
      "min": [
        0.30058801174163818,
        0.015281200408935547
      ],
      "type": "VEC2"
    },
    {
      "bufferView": 0,
      "byteOffset": 76920,
      "componentType": 5125,
      "count": 27504,
      "max": [
        5017
      ],
      "min": [
        0
      ],
      "type": "SCALAR"
    },
    {
      "bufferView": 2,
      "byteOffset": 218856,
      "componentType": 5126,
      "count": 8680,
      "max": [
        0.5422319769859314,
        0.046046800911426544,
        0.06003120169043541
      ],
      "min": [
        0.42703399062156677,
        -0.00036267298855818808,
        -0.061582699418067932
      ],
      "type": "VEC3"
    },
    {
      "bufferView": 2,
      "byteOffset": 323016,
      "componentType": 5126,
      "count": 8680,
      "max": [
        0.99954134225845337,
        0.99549388885498047,
        0.99993866682052612
      ],
      "min": [
        -0.99960565567016602,
        -0.98670673370361328,
        -0.99989509582519531
      ],
      "type": "VEC3"
    },
    {
      "bufferView": 3,
      "byteOffset": 145904,
      "componentType": 5126,
      "count": 8680,
      "max": [
        0.99997949600219727,
        0.99940645694732666,
        0.99991685152053833,
        1
      ],
      "min": [
        -0.99997180700302124,
        -0.99246042966842651,
        -0.99997711181640625,
        -1
      ],
      "type": "VEC4"
    },
    {
      "bufferView": 1,
      "byteOffset": 72952,
      "componentType": 5126,
      "count": 8680,
      "max": [
        0.94384700059890747,
        0.97675502300262451
      ],
      "min": [
        0.47467300295829773,
        0.0091012697666883469
      ],
      "type": "VEC2"
    },
    {
      "bufferView": 0,
      "byteOffset": 186936,
      "componentType": 5125,
      "count": 46080,
      "max": [
        8679
      ],
      "min": [
        0
      ],
      "type": "SCALAR"
    },
    {
      "bufferView": 2,
      "byteOffset": 427176,
      "componentType": 5126,
      "count": 724,
      "max": [
        1,
        0.0080893998965620995,
        0.027819599956274033
      ],
      "min": [
        0.53260797262191772,
        -0.036604698747396469,
        -0.027819700539112091
      ],
      "type": "VEC3"
    },
    {
      "bufferView": 2,
      "byteOffset": 435864,
      "componentType": 5126,
      "count": 724,
      "max": [
        0.93227297067642212,
        1,
        1
      ],
      "min": [
        -0.96203333139419556,
        -1,
        -1
      ],
      "type": "VEC3"
    },
    {
      "bufferView": 3,
      "byteOffset": 284784,
      "componentType": 5126,
      "count": 724,
      "max": [
        0.88118797540664673,
        1,
        0.00091212603729218245,
        1
      ],
      "min": [
        -0.88109934329986572,
        -1,
        -1,
        -1
      ],
      "type": "VEC4"
    },
    {
      "bufferView": 1,
      "byteOffset": 142392,
      "componentType": 5126,
      "count": 724,
      "max": [
        0.98713499307632446,
        0.43125200271606445
      ],
      "min": [
        0.55355501174926758,
        0.0089837601408362389
      ],
      "type": "VEC2"
    },
    {
      "bufferView": 0,
      "byteOffset": 371256,
      "componentType": 5125,
      "count": 2232,
      "max": [
        723
      ],
      "min": [
        0
      ],
      "type": "SCALAR"
    },
    {
      "bufferView": 2,
      "byteOffset": 444552,
      "componentType": 5126,
      "count": 688,
      "max": [
        0.93195700645446777,
        0.00782817043364048,
        0.026128500699996948
      ],
      "min": [
        0.83812397718429565,
        -0.036343500018119812,
        -0.026128599420189857
      ],
      "type": "VEC3"
    },
    {
      "bufferView": 2,
      "byteOffset": 452808,
      "componentType": 5126,
      "count": 688,
      "max": [
        0.93735378980636597,
        1,
        0.99999946355819702
      ],
      "min": [
        -0.93735378980636597,
        -1,
        -0.99999886751174927
      ],
      "type": "VEC3"
    },
    {
      "bufferView": 3,
      "byteOffset": 296368,
      "componentType": 5126,
      "count": 688,
      "max": [
        1,
        0.83193010091781616,
        0.96118652820587158,
        1
      ],
      "min": [
        -1,
        -0.85042852163314819,
        -0.97136735916137695,
        -1
      ],
      "type": "VEC4"
    },
    {
      "bufferView": 1,
      "byteOffset": 148184,
      "componentType": 5126,
      "count": 688,
      "max": [
        0.77401697635650635,
        0.42398801445960999
      ],
      "min": [
        0.54780501127243042,
        0.2640480101108551
      ],
      "type": "VEC2"
    },
    {
      "bufferView": 0,
      "byteOffset": 380184,
      "componentType": 5125,
      "count": 2688,
      "max": [
        687
      ],
      "min": [
        0
      ],
      "type": "SCALAR"
    },
    {
      "bufferView": 2,
      "byteOffset": 461064,
      "componentType": 5126,
      "count": 688,
      "max": [
        0.6603429913520813,
        0.00782817043364048,
        0.026128500699996948
      ],
      "min": [
        0.56651002168655396,
        -0.036343500018119812,
        -0.026128599420189857
      ],
      "type": "VEC3"
    },
    {
      "bufferView": 2,
      "byteOffset": 469320,
      "componentType": 5126,
      "count": 688,
      "max": [
        0.93735378980636597,
        1,
        0.99999946355819702
      ],
      "min": [
        -0.93735378980636597,
        -1,
        -0.99999886751174927
      ],
      "type": "VEC3"
    },
    {
      "bufferView": 3,
      "byteOffset": 307376,
      "componentType": 5126,
      "count": 688,
      "max": [
        1,
        0.83191996812820435,
        0.96118652820587158,
        1
      ],
      "min": [
        -1,
        -0.85042852163314819,
        -0.97136735916137695,
        -1
      ],
      "type": "VEC4"
    },
    {
      "bufferView": 1,
      "byteOffset": 153688,
      "componentType": 5126,
      "count": 688,
      "max": [
        0.77401697635650635,
        0.42398801445960999
      ],
      "min": [
        0.54780501127243042,
        0.2640480101108551
      ],
      "type": "VEC2"
    },
    {
      "bufferView": 0,
      "byteOffset": 390936,
      "componentType": 5125,
      "count": 2688,
      "max": [
        687
      ],
      "min": [
        0
      ],
      "type": "SCALAR"
    }
  ],
  "asset": {
    "extras": {
      "author": "Enshin (https://sketchfab.com/enshin)",
      "license": "CC-BY-4.0 (http://creativecommons.org/licenses/by/4.0/)",
      "source": "https://sketchfab.com/3d-models/blue-rose-sword-from-sword-art-online-ca533d34643d4034a2a3710b95a0ffd8",
      "title": "\"Blue Rose Sword\" from Sword-Art-Online"
    },
    "generator": "Sketchfab-5.47.0",
    "version": "2.0"
  },
  "bufferViews": [
    {
      "buffer": 0,
      "byteLength": 401688,
      "byteOffset": 0,
      "name": "floatBufferViews",
      "target": 34963
    },
    {
      "buffer": 0,
      "byteLength": 159192,
      "byteOffset": 401688,
      "byteStride": 8,
      "name": "floatBufferViews",
      "target": 34962
    },
    {
      "buffer": 0,
      "byteLength": 477576,
      "byteOffset": 560880,
      "byteStride": 12,
      "name": "floatBufferViews",
      "target": 34962
    },
    {
      "buffer": 0,
      "byteLength": 318384,
      "byteOffset": 1038456,
      "byteStride": 16,
      "name": "floatBufferViews",
      "target": 34962
    }
  ],
  "buffers": [
    {
      "byteLength": 1356840,
      "uri": "scene.bin"
    }
  ],
  "images": [
    {
      "uri": "textures/sword_baseColor.png"
    },
    {
      "uri": "textures/sword_metallicRoughness.png"
    },
    {
      "uri": "textures/sword_emissive.jpeg"
    },
    {
      "uri": "textures/sword_normal.png"
    },
    {
      "uri": "textures/Rose_baseColor.png"
    },
    {
      "uri": "textures/Rose_metallicRoughness.png"
    },
    {
      "uri": "textures/Rose_emissive.jpeg"
    },
    {
      "uri": "textures/Rose_normal.png"
    }
  ],
  "materials": [
    {
      "alphaMode": "BLEND",
      "doubleSided": true,
      "emissiveFactor": [
        1,
        1,
        1
      ],
      "emissiveTexture": {
        "index": 2,
        "texCoord": 0
      },
      "name": "sword",
      "normalTexture": {
        "index": 3,
        "scale": 1,
        "texCoord": 0
      },
      "pbrMetallicRoughness": {
        "baseColorFactor": [
          1,
          1,
          1,
          1
        ],
        "baseColorTexture": {
          "index": 0,
          "texCoord": 0
        },
        "metallicFactor": 1,
        "metallicRoughnessTexture": {
          "index": 1,
          "texCoord": 0
        },
        "roughnessFactor": 1
      }
    },
    {
      "alphaMode": "BLEND",
      "doubleSided": true,
      "emissiveFactor": [
        1,
        1,
        1
      ],
      "emissiveTexture": {
        "index": 6,
        "texCoord": 0
      },
      "name": "Rose",
      "normalTexture": {
        "index": 7,
        "scale": 1,
        "texCoord": 0
      },
      "pbrMetallicRoughness": {
        "baseColorFactor": [
          1,
          1,
          1,
          1
        ],
        "baseColorTexture": {
          "index": 4,
          "texCoord": 0
        },
        "metallicFactor": 1,
        "metallicRoughnessTexture": {
          "index": 5,
          "texCoord": 0
        },
        "roughnessFactor": 1
      }
    }
  ],
  "meshes": [
    {
      "name": "defaultMaterial",
      "primitives": [
        {
          "attributes": {
            "NORMAL": 1,
            "POSITION": 0,
            "TANGENT": 2,
            "TEXCOORD_0": 3
          },
          "indices": 4,
          "material": 0,
          "mode": 4
        }
      ]
    },
    {
      "name": "defaultMaterial",
      "primitives": [
        {
          "attributes": {
            "NORMAL": 6,
            "POSITION": 5,
            "TANGENT": 7,
            "TEXCOORD_0": 8
          },
          "indices": 9,
          "material": 1,
          "mode": 4
        }
      ]
    },
    {
      "name": "defaultMaterial",
      "primitives": [
        {
          "attributes": {
            "NORMAL": 11,
            "POSITION": 10,
            "TANGENT": 12,
            "TEXCOORD_0": 13
          },
          "indices": 14,
          "material": 1,
          "mode": 4
        }
      ]
    },
    {
      "name": "defaultMaterial",
      "primitives": [
        {
          "attributes": {
            "NORMAL": 16,
            "POSITION": 15,
            "TANGENT": 17,
            "TEXCOORD_0": 18
          },
          "indices": 19,
          "material": 1,
          "mode": 4
        }
      ]
    },
    {
      "name": "defaultMaterial",
      "primitives": [
        {
          "attributes": {
            "NORMAL": 21,
            "POSITION": 20,
            "TANGENT": 22,
            "TEXCOORD_0": 23
          },
          "indices": 24,
          "material": 0,
          "mode": 4
        }
      ]
    },
    {
      "name": "defaultMaterial",
      "primitives": [
        {
          "attributes": {
            "NORMAL": 26,
            "POSITION": 25,
            "TANGENT": 27,
            "TEXCOORD_0": 28
          },
          "indices": 29,
          "material": 0,
          "mode": 4
        }
      ]
    },
    {
      "name": "defaultMaterial",
      "primitives": [
        {
          "attributes": {
            "NORMAL": 31,
            "POSITION": 30,
            "TANGENT": 32,
            "TEXCOORD_0": 33
          },
          "indices": 34,
          "material": 0,
          "mode": 4
        }
      ]
    }
  ],
  "nodes": [
    {
      "children": [
        1
      ],
      "name": "RootNode (gltf orientation matrix)",
      "rotation": [
        -0.70710678118654746,
        -0,
        -0,
        0.70710678118654757
      ]
    },
    {
      "children": [
        2
      ],
      "name": "RootNode (model correction matrix)"
    },
    {
      "children": [
        3,
        5,
        7,
        9,
        11,
        13,
        15
      ],
      "matrix": [
        1,
        0,
        0,
        0,
        0,
        -4.3711390063094768e-08,
        0.999999999999999,
        0,
        0,
        -0.999999999999999,
        -4.3711390063094768e-08,
        0,
        0,
        0,
        0,
        1
      ],
      "name": "Collada visual scene group"
    },
    {
      "children": [
        4
      ],
      "name": "Cube"
    },
    {
      "mesh": 0,
      "name": "defaultMaterial"
    },
    {
      "children": [
        6
      ],
      "name": "BezierCurve"
    },
    {
      "mesh": 1,
      "name": "defaultMaterial"
    },
    {
      "children": [
        8
      ],
      "name": "BezierCurve.001"
    },
    {
      "mesh": 2,
      "name": "defaultMaterial"
    },
    {
      "children": [
        10
      ],
      "name": "Plane.000"
    },
    {
      "mesh": 3,
      "name": "defaultMaterial"
    },
    {
      "children": [
        12
      ],
      "name": "Cube.002"
    },
    {
      "mesh": 4,
      "name": "defaultMaterial"
    },
    {
      "children": [
        14
      ],
      "name": "Cube.003"
    },
    {
      "mesh": 5,
      "name": "defaultMaterial"
    },
    {
      "children": [
        16
      ],
      "name": "Cube.001"
    },
    {
      "mesh": 6,
      "name": "defaultMaterial"
    }
  ],
  "samplers": [
    {
      "magFilter": 9729,
      "minFilter": 9987,
      "wrapS": 10497,
      "wrapT": 10497
    }
  ],
  "scene": 0,
  "scenes": [
    {
      "name": "OSG_Scene",
      "nodes": [
        0
      ]
    }
  ],
  "textures": [
    {
      "sampler": 0,
      "source": 0
    },
    {
      "sampler": 0,
      "source": 1
    },
    {
      "sampler": 0,
      "source": 2
    },
    {
      "sampler": 0,
      "source": 3
    },
    {
      "sampler": 0,
      "source": 4
    },
    {
      "sampler": 0,
      "source": 5
    },
    {
      "sampler": 0,
      "source": 6
    },
    {
      "sampler": 0,
      "source": 7
    }
  ]
}

